<svg xmlns="http://www.w3.org/2000/svg" viewBox="0 0 640 400" width="640" height="400">
  <rect width="640" height="400" fill="#001A18"/>
  <g opacity="0.5" clip-path="url(#dg)"><circle cx="320" cy="200" r="20" fill="none" stroke="#002623" stroke-width="6"/><circle cx="320" cy="200" r="46" fill="none" stroke="#002623" stroke-width="6"/><circle cx="320" cy="200" r="72" fill="none" stroke="#002623" stroke-width="6"/><circle cx="320" cy="200" r="98" fill="none" stroke="#002623" stroke-width="6"/><circle cx="320" cy="200" r="124" fill="none" stroke="#002623" stroke-width="6"/><circle cx="320" cy="200" r="150" fill="none" stroke="#002623" stroke-width="6"/><circle cx="320" cy="200" r="176" fill="none" stroke="#002623" stroke-width="6"/><circle cx="320" cy="200" r="202" fill="none" stroke="#002623" stroke-width="6"/><circle cx="320" cy="200" r="228" fill="none" stroke="#002623" stroke-width="6"/><circle cx="320" cy="200" r="254" fill="none" stroke="#002623" stroke-width="6"/><circle cx="320" cy="200" r="280" fill="none" stroke="#002623" stroke-width="6"/><circle cx="320" cy="200" r="306" fill="none" stroke="#002623" stroke-width="6"/><circle cx="320" cy="200" r="332" fill="none" stroke="#002623" stroke-width="6"/><circle cx="320" cy="200" r="358" fill="none" stroke="#002623" stroke-width="6"/><circle cx="320" cy="200" r="384" fill="none" stroke="#002623" stroke-width="6"/><circle cx="320" cy="200" r="410" fill="none" stroke="#002623" stroke-width="6"/><circle cx="320" cy="200" r="436" fill="none" stroke="#002623" stroke-width="6"/><circle cx="320" cy="200" r="462" fill="none" stroke="#002623" stroke-width="6"/><circle cx="320" cy="200" r="488" fill="none" stroke="#002623" stroke-width="6"/><circle cx="320" cy="200" r="514" fill="none" stroke="#002623" stroke-width="6"/><circle cx="320" cy="200" r="540" fill="none" stroke="#002623" stroke-width="6"/><circle cx="320" cy="200" r="566" fill="none" stroke="#002623" stroke-width="6"/><circle cx="320" cy="200" r="592" fill="none" stroke="#002623" stroke-width="6"/><circle cx="320" cy="200" r="618" fill="none" stroke="#002623" stroke-width="6"/><circle cx="320" cy="200" r="644" fill="none" stroke="#002623" stroke-width="6"/><circle cx="320" cy="200" r="670" fill="none" stroke="#002623" stroke-width="6"/><circle cx="320" cy="200" r="696" fill="none" stroke="#002623" stroke-width="6"/><circle cx="320" cy="200" r="722" fill="none" stroke="#002623" stroke-width="6"/><circle cx="320" cy="200" r="748" fill="none" stroke="#002623" stroke-width="6"/><circle cx="320" cy="200" r="774" fill="none" stroke="#002623" stroke-width="6"/></g>
  <defs><clipPath id="dg"><rect width="640" height="400"/></clipPath></defs></svg>
