<svg xmlns="http://www.w3.org/2000/svg" viewBox="0 0 200 200" width="200" height="200">
  <circle cx="100" cy="100" r="56" fill="none" stroke="#428177"
          stroke-width="3.2"/>
  <circle cx="100" cy="100" r="66" fill="none" stroke="#8FA29D"
          stroke-width="1.4" stroke-dasharray="4 5"/>
  <path d="M100.0 56.0 L100.0 47.0" stroke="#B9A779" stroke-width="2.6" stroke-linecap="round"/><path d="M112.4 53.6 L113.7 48.8" stroke="#428177" stroke-width="1.4" stroke-linecap="round"/><path d="M124.0 58.4 L126.5 54.1" stroke="#428177" stroke-width="1.4" stroke-linecap="round"/><path d="M133.9 66.1 L137.5 62.5" stroke="#428177" stroke-width="1.4" stroke-linecap="round"/><path d="M141.6 76.0 L145.9 73.5" stroke="#428177" stroke-width="1.4" stroke-linecap="round"/><path d="M146.4 87.6 L151.2 86.3" stroke="#428177" stroke-width="1.4" stroke-linecap="round"/><path d="M144.0 100.0 L153.0 100.0" stroke="#428177" stroke-width="2.6" stroke-linecap="round"/><path d="M146.4 112.4 L151.2 113.7" stroke="#428177" stroke-width="1.4" stroke-linecap="round"/><path d="M141.6 124.0 L145.9 126.5" stroke="#428177" stroke-width="1.4" stroke-linecap="round"/><path d="M133.9 133.9 L137.5 137.5" stroke="#428177" stroke-width="1.4" stroke-linecap="round"/><path d="M124.0 141.6 L126.5 145.9" stroke="#428177" stroke-width="1.4" stroke-linecap="round"/><path d="M112.4 146.4 L113.7 151.2" stroke="#428177" stroke-width="1.4" stroke-linecap="round"/><path d="M100.0 144.0 L100.0 153.0" stroke="#428177" stroke-width="2.6" stroke-linecap="round"/><path d="M87.6 146.4 L86.3 151.2" stroke="#428177" stroke-width="1.4" stroke-linecap="round"/><path d="M76.0 141.6 L73.5 145.9" stroke="#428177" stroke-width="1.4" stroke-linecap="round"/><path d="M66.1 133.9 L62.5 137.5" stroke="#428177" stroke-width="1.4" stroke-linecap="round"/><path d="M58.4 124.0 L54.1 126.5" stroke="#428177" stroke-width="1.4" stroke-linecap="round"/><path d="M53.6 112.4 L48.8 113.7" stroke="#428177" stroke-width="1.4" stroke-linecap="round"/><path d="M56.0 100.0 L47.0 100.0" stroke="#428177" stroke-width="2.6" stroke-linecap="round"/><path d="M53.6 87.6 L48.8 86.3" stroke="#428177" stroke-width="1.4" stroke-linecap="round"/><path d="M58.4 76.0 L54.1 73.5" stroke="#428177" stroke-width="1.4" stroke-linecap="round"/><path d="M66.1 66.1 L62.5 62.5" stroke="#428177" stroke-width="1.4" stroke-linecap="round"/><path d="M76.0 58.4 L73.5 54.1" stroke="#428177" stroke-width="1.4" stroke-linecap="round"/><path d="M87.6 53.6 L86.3 48.8" stroke="#428177" stroke-width="1.4" stroke-linecap="round"/>
  <circle cx="100" cy="100" r="3.2" fill="#428177"/>
</svg>
